<svg width="794" height="521" viewBox="0 0 794 521" fill="none" xmlns="http://www.w3.org/2000/svg">
    <g clip-path="url(#clip0_24_2)">
        <mask id="mask0_24_2" style="mask-type:luminance" maskUnits="userSpaceOnUse" x="0" y="0"
            width="794" height="521">
            <path d="M794 0H0V521H794V0Z" fill="white" />
        </mask>
        <g mask="url(#mask0_24_2)">
            <path
                d="M726.178 452.833C720.03 463.3 709.93 466.091 700.895 469.742C679.311 478.457 657.295 485.634 635.428 493.321C632.89 494.386 630.136 494.46 627.56 493.533C624.985 492.606 622.721 490.726 621.093 488.162C619.234 485.665 618.045 482.554 617.684 479.236C617.322 475.917 617.803 472.545 619.064 469.559C619.649 468.471 619.972 467.21 619.998 465.916C617.936 452.986 615.739 440.088 613.424 426.378C601.937 429.082 589.869 432.736 577.612 434.66C536.917 441.05 496.262 448.249 455.4 452.512C373.341 461.081 291.124 456.731 208.962 453.747C173.42 452.458 138.043 448.515 104.236 433.392C49.0363 408.694 20.7382 359.749 17.1972 290.78C13.0477 209.897 51.9689 147.301 111.473 119.025C129.054 110.671 146.969 109.301 164.032 121.75C167.026 123.83 169.76 126.405 172.152 129.401C172.989 130.411 173.639 131.622 174.058 132.953C174.478 134.285 174.657 135.708 174.586 137.129C174.037 138.389 173.25 139.479 172.289 140.312C171.327 141.146 170.217 141.7 169.046 141.931C160.156 143.565 151.178 144.418 142.184 144.481C111.035 143.494 87.8297 161.24 68.8954 188.566C37.2966 234.155 33.3023 309.161 59.4221 357.253C71.6364 379.751 89.4207 393.424 109.782 403.159C139.408 417.42 170.948 425.126 202.871 425.905C253.614 427.082 304.415 426.794 355.158 425.417C396.446 424.298 437.816 422.305 478.916 417.722C522.513 412.858 565.833 404.449 609.284 397.683C613.388 397.042 615.216 394.973 615.107 389.719C614.939 381.704 615.338 373.688 615.557 365.673C615.758 358.259 617.799 351.934 623.962 349.023C626.659 347.696 629.637 347.423 632.472 348.242C635.306 349.061 637.853 350.931 639.748 353.584C663.587 381.772 689.803 406.925 717.974 428.637C721.503 431.373 723.486 436.977 726.188 441.254L726.178 452.833ZM685.83 441.495L639.861 397.807V458.651L685.83 441.495Z"
                fill="#F7F6FA" />
        </g>
        <path
            d="M272.416 46.04L270.624 101.72L272.16 135H254.24L255.776 103.896L254.24 49.24L272.416 46.04ZM327.169 102.616C327.169 96.728 326.657 92.8027 325.633 90.84C324.609 88.8773 322.22 87.896 318.465 87.896C314.71 87.896 310.444 89.3893 305.665 92.376V101.72L307.073 131.8L289.921 135L291.457 103.896C291.116 92.4613 290.177 82.2213 288.641 73.176L304.129 69.848C304.726 74.7973 305.153 79.6187 305.409 84.312C306.689 82.6053 308.14 80.9413 309.761 79.32C311.382 77.6133 313.942 75.736 317.441 73.688C320.94 71.5547 324.609 70.488 328.449 70.488C332.374 70.488 335.66 72.024 338.305 75.096C340.95 78.0827 342.273 82.1787 342.273 87.384L341.505 101.72L342.913 132.44L325.633 135.64L327.169 102.616ZM362.041 73.048V59.096L379.321 55.768L377.657 73.048H393.145L391.737 83.544H377.145L376.505 110.296C376.505 114.307 376.889 116.995 377.657 118.36C378.425 119.64 379.833 120.28 381.881 120.28C383.929 120.28 386.66 119.811 390.073 118.872L390.841 127.96C385.209 132.653 380.26 135 375.993 135C371.726 135 368.228 133.464 365.497 130.392C362.766 127.235 361.401 123.139 361.401 118.104L362.169 103.768L362.041 83.544H353.209L354.617 73.048H362.041ZM425.589 121.944C428.064 121.944 430.666 121.304 433.397 120.024C436.128 118.744 438.261 117.464 439.797 116.184L442.101 114.264L447.989 121.432C447.136 122.883 445.813 124.547 444.021 126.424C442.229 128.301 440.394 129.923 438.517 131.288C436.725 132.568 434.293 133.763 431.221 134.872C428.234 135.896 425.12 136.408 421.877 136.408C414.965 136.408 409.333 133.805 404.981 128.6C400.629 123.309 398.453 116.525 398.453 108.248C398.453 97.8373 401.482 88.7067 407.541 80.856C413.6 73.0053 420.682 69.08 428.789 69.08C435.018 69.08 439.84 70.8293 443.253 74.328C446.752 77.8267 448.501 82.7333 448.501 89.048C448.501 92.8027 447.861 97.0693 446.581 101.848L444.021 104.536L412.021 107.48C413.472 117.123 417.994 121.944 425.589 121.944ZM425.589 82.264C421.834 82.264 418.677 83.8 416.117 86.872C413.557 89.8587 412.064 93.6987 411.637 98.392L433.397 95.704C433.653 93.7413 433.781 92.12 433.781 90.84C433.781 85.1227 431.05 82.264 425.589 82.264ZM455.194 147.672C455.194 140.163 462.191 134.275 476.186 130.008C472.858 128.301 471.194 126.083 471.194 123.352C471.194 122.243 471.621 121.133 472.474 120.024C473.327 118.915 474.565 117.763 476.186 116.568V115.544C470.042 115.544 465.135 113.837 461.466 110.424C457.882 107.011 456.09 102.445 456.09 96.728C456.09 89.304 459.119 82.8613 465.178 77.4C471.237 71.8533 478.405 69.08 486.682 69.08C488.815 69.08 491.93 69.5067 496.026 70.36C500.122 71.2133 504.133 71.64 508.058 71.64H517.914L516.634 82.776L507.034 81.624C507.887 84.0987 508.314 86.9147 508.314 90.072C508.314 93.2293 507.546 96.3867 506.01 99.544C504.559 102.616 502.767 105.091 500.634 106.968C498.586 108.845 496.495 110.509 494.362 111.96C492.314 113.325 490.522 114.563 488.986 115.672C487.535 116.696 486.81 117.635 486.81 118.488C486.81 120.109 488.517 121.517 491.93 122.712C500.975 126.381 507.077 129.496 510.234 132.056C513.477 134.616 515.098 137.773 515.098 141.528C515.098 147.843 511.898 153.005 505.498 157.016C499.183 161.112 491.631 163.16 482.842 163.16C474.053 163.16 467.226 161.752 462.362 158.936C457.583 156.12 455.194 152.365 455.194 147.672ZM493.85 93.912C493.85 89.7307 492.911 86.6587 491.034 84.696C489.157 82.7333 486.213 81.752 482.202 81.752C474.437 81.752 470.554 85.592 470.554 93.272C470.554 100.867 474.693 104.664 482.97 104.664C490.223 104.664 493.85 101.08 493.85 93.912ZM498.458 143.448C498.458 141.912 497.647 140.461 496.026 139.096C494.405 137.816 491.503 136.28 487.322 134.488C481.093 136.195 476.783 137.773 474.394 139.224C472.09 140.675 470.938 142.467 470.938 144.6C470.938 146.733 472.09 148.44 474.394 149.72C476.783 151.085 480.069 151.768 484.25 151.768C488.431 151.768 491.845 151 494.49 149.464C497.135 147.928 498.458 145.923 498.458 143.448ZM523.266 73.176L538.754 69.848C539.522 76.4187 540.034 82.648 540.29 88.536C548.055 76.504 555.351 70.488 562.178 70.488L560.77 90.456C555.821 90.456 551.895 90.9253 548.994 91.864C546.178 92.7173 543.277 94.4667 540.29 97.112V101.72L541.698 131.8L524.546 135L526.082 103.896C525.741 92.4613 524.802 82.2213 523.266 73.176ZM583.099 135C578.064 135 573.926 133.421 570.683 130.264C567.526 127.021 565.947 122.712 565.947 117.336C565.947 111.875 568.422 107.181 573.371 103.256C578.32 99.2453 584.336 97.24 591.419 97.24H600.123V95.064C600.123 90.8827 599.27 88.024 597.563 86.488C595.856 84.952 592.656 84.184 587.963 84.184C586 84.184 583.654 84.6107 580.923 85.464C578.278 86.232 575.291 87.4693 571.963 89.176L568.251 79.064C571.92 76.504 576.358 74.2 581.563 72.152C586.854 70.104 591.206 69.08 594.619 69.08C608.016 69.08 614.715 75.5653 614.715 88.536V113.624C614.715 118.403 616.208 123.736 619.195 129.624L605.627 135.384C603.494 131.288 601.915 127.619 600.891 124.376C596.198 131.459 590.267 135 583.099 135ZM588.475 121.944C591.888 121.944 595.771 120.195 600.123 116.696V108.12C595.6 107.096 591.931 106.584 589.115 106.584C583.739 106.584 581.051 108.973 581.051 113.752C581.051 116.227 581.734 118.232 583.099 119.768C584.464 121.219 586.256 121.944 588.475 121.944ZM635.291 73.048V59.096L652.571 55.768L650.907 73.048H666.395L664.987 83.544H650.395L649.755 110.296C649.755 114.307 650.139 116.995 650.907 118.36C651.675 119.64 653.083 120.28 655.131 120.28C657.179 120.28 659.91 119.811 663.323 118.872L664.091 127.96C658.459 132.653 653.51 135 649.243 135C644.976 135 641.478 133.464 638.747 130.392C636.016 127.235 634.651 123.139 634.651 118.104L635.419 103.768L635.291 83.544H626.459L627.867 73.048H635.291ZM698.839 121.944C701.314 121.944 703.916 121.304 706.647 120.024C709.378 118.744 711.511 117.464 713.047 116.184L715.351 114.264L721.239 121.432C720.386 122.883 719.063 124.547 717.271 126.424C715.479 128.301 713.644 129.923 711.767 131.288C709.975 132.568 707.543 133.763 704.471 134.872C701.484 135.896 698.37 136.408 695.127 136.408C688.215 136.408 682.583 133.805 678.231 128.6C673.879 123.309 671.703 116.525 671.703 108.248C671.703 97.8373 674.732 88.7067 680.791 80.856C686.85 73.0053 693.932 69.08 702.039 69.08C708.268 69.08 713.09 70.8293 716.503 74.328C720.002 77.8267 721.751 82.7333 721.751 89.048C721.751 92.8027 721.111 97.0693 719.831 101.848L717.271 104.536L685.271 107.48C686.722 117.123 691.244 121.944 698.839 121.944ZM698.839 82.264C695.084 82.264 691.927 83.8 689.367 86.872C686.807 89.8587 685.314 93.6987 684.887 98.392L706.647 95.704C706.903 93.7413 707.031 92.12 707.031 90.84C707.031 85.1227 704.3 82.264 698.839 82.264ZM326.048 281H327.456L333.472 258.984L345.76 207.912L360.224 210.216L346.272 261.032L337.696 295.976L314.272 297.64L306.976 263.464L302.624 246.568L298.784 261.032L290.208 295.976L267.168 297.64L259.488 263.464L246.176 211.112L262.816 207.912L273.184 257.32L278.944 281H280.352L287.136 257.32L296.48 222.76L293.536 211.112L310.432 207.912L320.544 257.32L326.048 281ZM386.951 231.848L385.415 263.72L386.823 293.8L369.671 297L371.207 265.896L369.799 235.048L386.951 231.848ZM368.903 213.16C368.903 210.259 370.012 207.699 372.231 205.48C374.45 203.176 377.01 202.024 379.911 202.024C382.812 202.024 385.031 202.835 386.567 204.456C388.103 205.992 388.871 208.339 388.871 211.496C388.871 214.653 387.762 217.384 385.543 219.688C383.41 221.907 380.892 223.016 377.991 223.016C375.175 223.016 372.956 222.077 371.335 220.2C369.714 218.323 368.903 215.976 368.903 213.16ZM406.041 235.048V221.096L423.321 217.768L421.657 235.048H437.145L435.737 245.544H421.145L420.505 272.296C420.505 276.307 420.889 278.995 421.657 280.36C422.425 281.64 423.833 282.28 425.881 282.28C427.929 282.28 430.66 281.811 434.073 280.872L434.841 289.96C429.209 294.653 424.26 297 419.993 297C415.726 297 412.228 295.464 409.497 292.392C406.766 289.235 405.401 285.139 405.401 280.104L406.169 265.768L406.041 245.544H397.209L398.617 235.048H406.041ZM483.925 264.616C483.925 258.728 483.413 254.803 482.389 252.84C481.365 250.877 478.976 249.896 475.221 249.896C471.466 249.896 467.2 251.389 462.421 254.376V263.72L463.829 293.8L446.549 297L448.085 265.896L446.549 201.128L464.085 197.928L462.421 231.08V246.056C463.701 244.349 465.152 242.685 466.773 241.064C468.394 239.443 470.912 237.608 474.325 235.56C477.738 233.512 481.365 232.488 485.205 232.488C489.13 232.488 492.416 234.024 495.061 237.096C497.706 240.083 499.029 244.179 499.029 249.384L498.261 263.72L499.669 294.44L482.389 297.64L483.925 264.616Z"
            fill="#F7F6FA" />
    </g>
    <defs>
        <clipPath id="clip0_24_2">
            <rect width="794" height="521" fill="white" />
        </clipPath>
    </defs>
</svg>