<svg width="483" height="500" viewBox="0 0 483 500" fill="none" xmlns="http://www.w3.org/2000/svg">
<ellipse cx="241.313" cy="250" rx="241.313" ry="250" fill="url(#paint0_radial_62_16)"/>
<path d="M388.577 134.395C364.362 134.395 345.985 120.771 326.525 106.35C304.17 89.7803 278.833 71 241.168 71C203.503 71 178.166 89.7803 155.809 106.35C136.351 120.771 117.973 134.395 93.7586 134.395C89.4753 134.395 86 137.734 86 141.853C86 228.937 97.2819 286.924 122.581 329.869C147.702 372.513 185.097 399.034 237.288 428.001C238.488 428.667 239.827 429 241.167 429C242.507 429 243.846 428.666 245.046 428.001C297.238 399.034 334.632 372.514 359.755 329.869C385.053 286.924 396.334 228.937 396.334 141.853C396.335 137.734 392.86 134.395 388.577 134.395ZM241.168 412.918C147.583 360.458 102.768 315.264 101.543 148.937C127.105 146.461 146.486 132.096 165.285 118.162C186.673 102.31 208.79 85.9164 241.168 85.9164C273.545 85.9164 295.662 102.309 317.051 118.162C335.848 132.096 355.231 146.46 380.792 148.937C379.568 315.264 334.753 360.458 241.168 412.918Z" fill="#FFFAFA"/>
<path d="M149.5 156.18C147.503 152.535 142.812 151.137 139.02 153.056C138.056 153.544 137.079 154.023 136.098 154.488C132.254 156.307 130.672 160.778 132.564 164.474C133.914 167.111 136.668 168.639 139.531 168.639C140.68 168.639 141.85 168.393 142.952 167.871C144.06 167.347 145.162 166.806 146.249 166.256C150.041 164.335 151.496 159.825 149.5 156.18Z" fill="#FFFAFA"/>
<path d="M354.332 214.665C354.569 214.686 354.807 214.696 355.042 214.696C359.009 214.696 362.395 211.786 362.759 207.912C362.85 206.96 362.936 206.004 363.02 205.051C363.382 200.946 360.214 197.337 355.943 196.989C351.68 196.636 347.919 199.687 347.559 203.792C347.477 204.713 347.393 205.639 347.305 206.562C346.919 210.665 350.064 214.293 354.332 214.665Z" fill="#FFFAFA"/>
<path d="M164.835 153.597C166.407 153.597 167.996 153.139 169.369 152.184C173.864 149.065 178.241 145.862 182.474 142.762C202.277 128.267 219.379 115.749 241.168 115.749C245.453 115.749 248.927 112.409 248.927 108.29C248.927 104.172 245.453 100.832 241.168 100.832C214.144 100.832 194.194 115.433 173.074 130.894C168.918 133.937 164.62 137.083 160.286 140.091C156.811 142.503 156.03 147.164 158.538 150.503C160.054 152.524 162.427 153.597 164.835 153.597Z" fill="#FFFAFA"/>
<path d="M241.168 378.159C221.313 366.391 197.332 350.588 179.35 330.208C176.579 327.066 171.682 326.681 168.415 329.343C165.146 332.007 164.744 336.715 167.515 339.857C188.174 363.273 215.579 380.707 237.144 393.281C237.184 393.302 237.226 393.318 237.265 393.34C237.451 393.444 237.642 393.534 237.836 393.623C237.96 393.679 238.084 393.742 238.21 393.792C238.385 393.86 238.561 393.914 238.741 393.971C238.891 394.018 239.038 394.073 239.19 394.111C239.352 394.153 239.517 394.177 239.681 394.208C239.846 394.24 240.011 394.279 240.178 394.299C240.413 394.329 240.649 394.336 240.887 394.345C240.978 394.348 241.069 394.362 241.16 394.362C241.163 394.362 241.166 394.362 241.168 394.362C241.171 394.362 241.175 394.362 241.176 394.362C241.267 394.362 241.358 394.348 241.449 394.345C241.687 394.336 241.925 394.329 242.159 394.299C242.325 394.279 242.487 394.24 242.65 394.209C242.817 394.178 242.984 394.154 243.148 394.111C243.298 394.074 243.445 394.02 243.593 393.973C243.771 393.916 243.951 393.862 244.127 393.792C244.253 393.744 244.375 393.681 244.499 393.623C244.694 393.534 244.886 393.444 245.07 393.341C245.112 393.319 245.152 393.303 245.191 393.281C266.757 380.709 294.161 363.275 314.82 339.856C338.377 313.145 353.226 276.999 360.213 229.351C360.811 225.272 357.856 221.501 353.614 220.925C349.366 220.351 345.446 223.191 344.848 227.269C338.282 272.041 324.59 305.714 302.985 330.21C285.006 350.588 261.027 366.391 241.168 378.159Z" fill="#FFFAFA"/>
<path d="M235.914 169.366C238.274 168.537 240.851 169.229 243.013 170.31C244.524 171.296 246.035 172.292 247.727 172.938C247.856 173.184 248.125 173.672 248.255 173.913C248.187 174.076 248.058 174.411 247.991 174.574C249.196 177.353 249.967 180.647 248.798 183.568C248.001 184.554 246.615 184.706 245.492 185.088C245.487 186.499 245.709 187.894 245.828 189.295C248.229 189.688 250.261 187.994 252.636 188.162C252.957 186.814 253.211 185.444 253.636 184.123C254.128 184.999 254.148 186.006 254.153 186.992C254.774 187.171 255.406 187.333 256.041 187.49C256.047 187.732 256.052 188.214 256.052 188.456C266.462 188.519 276.867 188.408 287.278 188.513C287.253 188.874 287.202 189.598 287.181 189.961C287.45 189.961 287.999 189.966 288.272 189.966C288.262 188.047 288.272 186.122 288.267 184.203C288.531 184.192 289.048 184.176 289.307 184.171C289.313 185.681 289.318 187.192 289.333 188.703C289.56 188.986 290.016 189.552 290.244 189.835C290.415 189.63 290.756 189.227 290.926 189.022C291.718 189.773 291.268 190.8 291.233 191.722C294.146 191.69 297.089 191.89 299.993 191.649C300.21 191.486 300.645 191.166 300.862 191.004C301.261 191.161 301.664 191.319 302.062 191.481C303.371 191.449 304.686 191.445 306 191.439C305.973 192.126 305.952 192.813 305.927 193.5C304.235 193.474 302.537 193.437 300.871 193.731C299.795 192.792 298.351 193.09 297.053 193.055C295.055 193.149 292.995 192.792 291.061 193.437C289.911 193.762 288.65 193.684 287.636 193.023C287.391 193.636 287.765 195.01 286.745 194.957C282.729 195.01 278.719 194.921 274.709 194.984C274.161 195.278 273.607 195.556 273.06 195.828C272.48 197.58 270.819 198.749 269.406 199.818C269.23 202.509 270.28 205.021 270.689 207.632C269.897 207.863 269.1 208.1 268.319 208.362C267.196 211.047 267.884 214.712 265.287 216.586C263.295 217.76 261.976 220.314 259.29 219.911C260.656 221.065 258.917 220.703 259.098 219.78C254.24 219.344 250.147 216.455 245.925 214.253C245.728 215.458 245.418 216.644 245.097 217.824C246.701 218.133 248.026 219.329 248.31 220.997C248.822 224.632 247.798 228.241 247.813 231.885C247.927 234.025 247.022 235.986 245.894 237.732C244.905 238.865 243.348 237.7 242.163 237.533C241.894 238.063 241.63 238.593 241.371 239.127C241.708 240.553 241.853 242.038 242.324 243.433C244.968 246.396 247.374 249.606 249.221 253.146C251.122 257.155 252.817 261.262 254.297 265.449C254.442 266.263 255.197 266.555 255.86 266.85C255.948 267.689 256.036 268.527 256.119 269.377C256.378 269.76 256.642 270.142 256.911 270.53C257.071 275.702 256.445 280.851 255.652 285.954C255.162 288.257 256.491 290.507 255.953 292.825C256.015 294.012 255.208 294.908 254.83 295.957C254.757 298.406 254.638 300.886 254.903 303.331C255.088 305.125 256.585 306.278 257.599 307.616C258.706 308.807 259.632 310.406 261.309 310.83C262.887 311.308 264.393 312 265.784 312.908C266.208 313.972 266.13 315.1 265.928 316.206C262.896 316.772 259.802 316.49 256.739 316.537C254.378 316.663 252.274 315.378 249.98 315.11C247.761 315.053 245.054 316.17 243.348 314.156C244.071 311.362 244.129 308.361 245.453 305.754C245.877 302.801 245.071 299.806 245.241 296.827C244.988 296.612 244.48 296.182 244.227 295.966C244.409 294.021 243.461 292.29 243.145 290.429C242.939 287.71 242.695 284.995 242.385 282.288C242.141 280.972 242.814 279.766 243.73 278.891C243.813 277.37 244.015 275.864 244.159 274.354C243.937 273.373 243.166 272.644 242.669 271.805C241.008 272.514 238.768 272.178 237.779 270.53C235.436 266.996 233.097 263.461 230.727 259.947C229.796 259.884 228.812 259.983 227.943 259.606C226.94 258.563 226.417 257.173 225.776 255.904C224.86 256.947 224.927 258.546 223.841 259.496C221.544 261.731 220.933 265.014 219.733 267.877C218.813 269.733 219.33 271.972 218.305 273.782C217.756 274.757 216.38 274.951 216.018 276.064C215.542 277.264 214.983 278.508 213.87 279.238C212.665 280.039 212.344 281.561 211.807 282.819C211.315 283.978 212.045 285.194 211.874 286.386C211.108 290.167 208.733 293.329 207.735 297.032C207.279 298.7 206.627 300.578 204.712 300.934C202.534 304.878 201.334 309.703 202.566 314.144C203.321 315.539 203.28 317.107 203.047 318.644C199.586 318.917 196.036 319.388 192.637 318.408C191.84 316.808 191.954 314.925 192.119 313.196C193.169 308.648 194.561 304.18 195.415 299.586C194.349 298.626 194.598 297.158 194.618 295.873C194.582 293.476 196.191 291.557 197.308 289.59C197.728 287.571 197.531 285.401 198.561 283.548C199.772 281.23 200.796 278.724 202.664 276.851C203.021 275.199 204.222 273.951 204.708 272.361C205.225 270.955 204.32 269.528 204.502 268.092C204.946 263.733 205.728 259.417 206.406 255.09C205.123 254.005 205.537 252.28 205.128 250.816C205.33 250.239 205.583 249.689 205.888 249.153C205.568 248.854 205.253 248.55 204.931 248.252C205.242 246.714 205.154 243.96 207.482 244.46C207.627 239.368 205.883 234.438 206.468 229.34C206.778 229.706 207.083 230.079 207.394 230.451L207.229 228.726C208.201 228.201 209.236 227.798 210.323 227.593C208.553 227.358 206.83 226.901 205.096 226.492C204.677 225.374 204.911 224.184 205.065 223.041C205.737 219.181 205.986 215.268 206.125 211.356C208.086 210.665 210.249 211.252 212.164 210.328C211.57 205.435 211.42 200.327 213.137 195.633C214.518 191.636 217.157 187.781 221.276 186.376C223.221 185.905 225.669 185.374 227.044 187.289C227.422 186.937 227.799 186.575 228.177 186.224C225.037 179.902 228.788 170.667 235.914 169.366ZM261.045 196.785C260.217 197.298 259.405 197.886 260.275 198.82C259.851 199.076 259.425 199.323 258.996 199.559C258.323 200.083 256.812 200.382 256.988 201.442C257.744 202.672 258.395 203.965 258.934 205.307C260.584 203.933 261.899 202.086 262.789 200.131C262.975 199.937 263.353 199.549 263.539 199.36C263.456 198.463 263.26 197.586 262.913 196.758C262.292 196.769 261.666 196.779 261.045 196.785Z" fill="#965B05"/>
<defs>
<radialGradient id="paint0_radial_62_16" cx="0" cy="0" r="1" gradientUnits="userSpaceOnUse" gradientTransform="translate(241.313 250) rotate(90) scale(250 241.313)">
<stop stop-color="#CDBC8A"/>
<stop offset="1" stop-color="#FFBF00"/>
</radialGradient>
</defs>
</svg>
