<svg xmlns="http://www.w3.org/2000/svg" width="550" height="550" viewBox="0 0 550 550" version="1.1" class="w-14 h-14"><path d="M 147 260.059 C 147 275.683, 147.333 282.912, 148.034 282.479 C 148.603 282.127, 153.854 277.805, 159.704 272.874 L 170.339 263.909 175.420 268.698 C 178.214 271.332, 183.313 276.177, 186.750 279.464 L 193 285.442 193 261.221 L 193 237 170 237 L 147 237 147 260.059 M 76 311.557 C 76 341.779, 76.076 343.058, 77.803 341.807 C 78.794 341.088, 89.144 332.441, 100.803 322.590 L 122 304.680 122 292.340 L 122 280 99 280 L 76 280 76 311.557 M 158.143 301.554 L 147 311.050 147 363.525 L 147 416 170 416 L 193 416 193 364.707 L 193 313.414 182.250 303.398 C 176.338 297.890, 171.002 293.085, 170.393 292.721 C 169.784 292.357, 164.272 296.332, 158.143 301.554 M 98.804 351.330 L 76.109 370.500 76.054 393.250 L 76 416 99 416 L 122 416 122 374 C 122 350.900, 121.888 332.036, 121.750 332.080 C 121.612 332.124, 111.287 340.787, 98.804 351.330" stroke="none" fill="#00ff03" fill-rule="evenodd"></path><path d="M 240.500 299.304 L 218.500 315.544 218.241 365.772 L 217.982 416 240.991 416 L 264 416 264 349.500 C 264 312.925, 263.663 283.014, 263.250 283.032 C 262.837 283.050, 252.600 290.372, 240.500 299.304" stroke="none" fill="#ff1919" fill-rule="evenodd"></path><path d="M 270.500 135.629 C 246.451 140.665, 227.638 158.859, 220.795 183.700 C 218.763 191.075, 218.624 194.157, 218.241 240.250 C 218.018 267.063, 218.210 288.981, 218.668 288.958 C 219.126 288.936, 229.400 281.605, 241.500 272.667 L 263.500 256.418 264 227.459 C 264.551 195.570, 264.863 193.818, 270.893 188.743 C 272.634 187.278, 275.508 185.815, 277.279 185.492 C 279.051 185.169, 307.050 185.039, 339.500 185.203 L 398.500 185.500 404.196 188.170 C 415.517 193.476, 423.211 204.569, 426.419 220.208 C 428.450 230.111, 428.511 253.925, 426.529 263.280 C 423.141 279.269, 412.470 290.298, 396.320 294.505 C 391.570 295.742, 381.301 296, 336.790 296 L 283 296 283 321.571 L 283 347.143 341.250 346.762 C 397.111 346.396, 399.817 346.293, 407.233 344.235 C 418.797 341.028, 427.840 336.922, 436.452 330.968 C 454.615 318.412, 466.734 299.304, 471.632 275.500 C 473.695 265.474, 474.556 230.940, 473.062 218.108 C 467.790 172.803, 440.012 140.619, 401.356 135.031 C 397.402 134.459, 369.740 134.066, 336 134.101 C 288.638 134.151, 276.167 134.442, 270.500 135.629" stroke="none" fill="#ffffff" fill-rule="evenodd"></path></svg>